<svg xmlns="http://www.w3.org/2000/svg" xmlns:xlink="http://www.w3.org/1999/xlink" version="1.1" x="0px" y="0px" viewBox="0 0 100 125" enable-background="new 0 0 100 100" xml:space="preserve"><g><path d="M33,30.045c-6.755,0-12.25-5.495-12.25-12.25S26.245,5.544,33,5.544c6.754,0,12.25,5.495,12.25,12.25   S39.754,30.045,33,30.045z M33,7.778c-5.523,0-10.017,4.494-10.017,10.017S27.477,27.811,33,27.811s10.017-4.494,10.017-10.017   S38.523,7.778,33,7.778z"/><g><path d="M43.127,79.534l0.001,13.053c-0.009,0.053-0.062,0.147-0.113,0.208H22.987c-0.064-0.062-0.137-0.161-0.149-0.187v-27.08    l-0.327-0.327c-1.773-1.773-3.403-3.853-3.488-4.423V36.766c0-1.575,1.899-3.165,6.143-3.165l15.101-0.001    c4.995,0,6.677,2.174,6.677,3.167l0.011,5.216c0.71-0.513,1.456-0.983,2.231-1.414l-0.008-3.804c0-2.617-3.123-5.399-8.911-5.399    l-15.101,0.001c-6.182,0-8.376,2.908-8.376,5.398v24.012c0,1.507,2.257,4.077,3.816,5.671v26.159c0,1.09,1.031,2.42,2.234,2.42    h20.335c1.212,0,2.187-1.324,2.187-2.42V81.786C44.564,81.091,43.819,80.339,43.127,79.534z"/></g><path d="M60,40c-12.294,0-22.26,9.966-22.26,22.26c0,12.294,9.966,22.26,22.26,22.26s22.26-9.966,22.26-22.26   C82.26,49.966,72.294,40,60,40z M59.522,76.38c-1.403,0-2.393-1.114-2.393-2.559c0-1.526,1.031-2.599,2.435-2.599   c1.485,0,2.434,1.072,2.434,2.599C61.997,75.266,61.049,76.38,59.522,76.38z M63.441,61.179c-1.815,2.146-2.476,4.002-2.353,6.106   l0.083,1.031h-3.26l-0.082-1.072c-0.248-2.188,0.495-4.663,2.558-7.139c1.856-2.187,2.889-3.796,2.889-5.652   c0-2.104-1.32-3.507-3.92-3.549c-1.485,0-3.136,0.496-4.167,1.279l-0.99-2.6c1.402-0.99,3.713-1.65,5.9-1.65   c4.745,0,6.89,2.93,6.89,6.065C66.989,56.805,65.422,58.826,63.441,61.179z"/></g><text x="0" y="115" fill="#000000" font-size="5px" font-weight="bold" font-family="'Helvetica Neue', Helvetica, Arial-Unicode, Arial, Sans-serif">Created by Ben Peetermans</text><text x="0" y="120" fill="#000000" font-size="5px" font-weight="bold" font-family="'Helvetica Neue', Helvetica, Arial-Unicode, Arial, Sans-serif">from the Noun Project</text></svg>