<svg xmlns="http://www.w3.org/2000/svg" xmlns:xlink="http://www.w3.org/1999/xlink" version="1.1" x="0px" y="0px" viewBox="0 0 100 125" enable-background="new 0 0 100 100" xml:space="preserve"><g><g><path d="M43.563,39.966c0.063,0.114,0.195,0.179,0.328,0.148l3.746-0.837c0.078-0.018,0.145-0.064,0.188-0.132    s0.057-0.149,0.039-0.226l-3.131-14.016c-0.018-0.076-0.064-0.144-0.133-0.188c-0.066-0.043-0.148-0.058-0.225-0.04l-3.748,0.837    c-0.078,0.018-0.145,0.065-0.188,0.133c-0.041,0.067-0.055,0.148-0.039,0.226l3.133,14.016    C43.54,39.916,43.55,39.942,43.563,39.966z"/><path d="M64.756,74.061l-9.534-9.635c-0.094-0.094-0.24-0.116-0.355-0.052l-1.254,0.688c-1.49,0.815-4.494,0.753-5.381-0.865    L38.458,46.35c-0.887-1.618,0.678-4.183,2.168-4.998l1.254-0.688c0.117-0.063,0.178-0.198,0.148-0.328l-2.984-13.222    c-0.025-0.112-0.109-0.199-0.223-0.227c-0.111-0.026-0.229,0.012-0.301,0.101c-0.242,0.292-5.945,7.168-7.111,9.991    c-2.365,5.724-0.998,13.309,4.061,22.543l0.053,0.1c5.059,9.234,10.713,14.47,16.811,15.561    c3.006,0.538,11.872-0.566,12.247-0.613c0.115-0.014,0.211-0.092,0.246-0.198C64.865,74.262,64.838,74.145,64.756,74.061z"/><path d="M69.627,70.782c0.057-0.056,0.09-0.132,0.09-0.212c-0.002-0.081-0.033-0.155-0.088-0.212L59.505,60.173    c-0.057-0.057-0.133-0.088-0.211-0.089c-0.08,0-0.156,0.031-0.213,0.086l-2.723,2.707c-0.098,0.095-0.113,0.242-0.051,0.356    c0.012,0.023,0.029,0.047,0.049,0.067L66.48,73.487c0.055,0.056,0.131,0.088,0.213,0.088c0.078,0.001,0.154-0.031,0.211-0.087    L69.627,70.782z"/></g></g><text x="0" y="115" fill="#000000" font-size="5px" font-weight="bold" font-family="'Helvetica Neue', Helvetica, Arial-Unicode, Arial, Sans-serif">Created by lipi</text><text x="0" y="120" fill="#000000" font-size="5px" font-weight="bold" font-family="'Helvetica Neue', Helvetica, Arial-Unicode, Arial, Sans-serif">from the Noun Project</text></svg>