<svg xmlns="http://www.w3.org/2000/svg" xmlns:xlink="http://www.w3.org/1999/xlink" version="1.1" x="0px" y="0px" viewBox="0 0 100 125" enable-background="new 0 0 100 100" xml:space="preserve"><g><path d="M76.506,21.778c-6.761,0-12.654,3.649-15.865,9.074c-0.727-1.098-1.785-2.005-3.11-2.542   c-0.187-0.075-0.376-0.143-0.564-0.201c-0.608-4.266-3.32-7.93-7.295-9.75c-0.017-0.007-0.034-0.019-0.05-0.027l-0.109-0.044   c-0.121-0.053-0.241-0.111-0.365-0.161c-0.042-0.018-0.084-0.024-0.127-0.038L13.431,3.662c-1.125-0.457-2.408,0.086-2.865,1.212   L2.662,24.372c-0.457,1.125,0.086,2.408,1.212,2.864l26.2,10.622c-1.072,0.432-2.006,1.113-2.695,2.056   c-2.402,3.291-0.973,8.423,3.193,11.467l14.004,11.215l-2.328,8.685l19.502,18.348l10.71-15.65   c2.738-4.001,1.713-9.467-2.289-12.206L63,56.863c-0.286-0.255-0.583-0.504-0.9-0.736L43.658,42.664   c3.055,0.175,6.085-0.761,8.541-2.691c0.166,0.083,0.336,0.16,0.51,0.229c1.811,0.734,3.746,0.631,5.362-0.117   c0,0.045-0.007,0.089-0.007,0.134c0,10.185,8.257,18.442,18.441,18.442s18.441-8.257,18.441-18.442S86.69,21.778,76.506,21.778z    M24.858,25.826c-1.126-0.457-2.41,0.086-2.867,1.211l-0.973,2.402l-4.906-1.989l0.354-0.871c0.457-1.126-0.087-2.41-1.211-2.866   c-1.127-0.457-2.41,0.086-2.867,1.212l-0.353,0.872l-4.469-1.812l6.25-15.419L45.45,21.39l-6.251,15.42l-4.658-1.889l0.354-0.872   c0.457-1.125-0.086-2.408-1.213-2.865c-1.125-0.456-2.408,0.087-2.865,1.213l-0.353,0.871l-5.368-2.176l0.975-2.4   C26.527,27.565,25.984,26.282,24.858,25.826z M57.199,35.1c-0.417,1.031-1.69,1.49-2.838,1.025   c-0.301-0.122-0.568-0.298-0.797-0.524c-0.422-0.416-0.993-0.645-1.585-0.635c-0.591,0.01-1.154,0.259-1.561,0.689   c-1.729,1.829-4.104,2.731-6.502,2.599l5.92-14.6c1.798,1.564,2.875,3.846,2.858,6.339c-0.005,0.591,0.229,1.161,0.65,1.577   c0.419,0.416,0.989,0.646,1.58,0.638c0.328-0.005,0.646,0.056,0.951,0.178C57.023,32.852,57.619,34.069,57.199,35.1z"/><path d="M8.248,85.525c0,5.092,4.128,9.221,9.221,9.221h20.312V76.305H17.469C12.376,76.305,8.248,80.434,8.248,85.525z"/></g><text x="0" y="115" fill="#000000" font-size="5px" font-weight="bold" font-family="'Helvetica Neue', Helvetica, Arial-Unicode, Arial, Sans-serif">Created by corpus delicti</text><text x="0" y="120" fill="#000000" font-size="5px" font-weight="bold" font-family="'Helvetica Neue', Helvetica, Arial-Unicode, Arial, Sans-serif">from the Noun Project</text></svg>