<svg xmlns="http://www.w3.org/2000/svg" xmlns:xlink="http://www.w3.org/1999/xlink" version="1.1" x="0px" y="0px" viewBox="0 0 100 125" enable-background="new 0 0 100 100" xml:space="preserve"><path fill="#000000" d="M89.8,22H10.2c-2.6,0-4.8,2.2-4.8,4.8v40.7c0,2.6,2.2,4.8,4.8,4.8h79.7c2.6,0,4.8-2.2,4.8-4.8V26.8  C94.6,24.2,92.5,22,89.8,22z M43.2,37.9H50v6.9h-6.9V37.9z M53.2,37.9h6.9v6.9h-6.9V37.9z M63.1,37.9H70v6.9h-6.9V37.9z M73,37.9  h6.9v6.9H73V37.9z M82.7,37.9h8v6.9h-8V37.9z M53.5,48.3v6.9h-6.9v-6.9H53.5z M32.9,37.9h6.9v6.9h-6.9V37.9z M43.2,48.3v6.9h-6.9  v-6.9H43.2z M22.5,37.9h6.9v6.9h-6.9V37.9z M32.9,48.3v6.9H26v-6.9H32.9z M12.2,37.9h6.9v6.9h-6.9V37.9z M47.2,27.8H54v6.9h-6.9  V27.8z M57.2,27.8h6.9v6.9h-6.9V27.8z M67.3,27.8h7v6.9h-7V27.8z M77.2,27.8h7v6.9h-7V27.8z M36.9,27.8h6.9v6.9h-6.9V27.8z   M26.5,27.8h6.9v6.9h-6.9V27.8z M16.2,27.8h6.9v6.9h-6.9V27.8z M22.5,48.3v6.9h-6.9v-6.9H22.5z M21.6,65.5h-9.3v-6.9h9.3V65.5z   M78.7,65.5H25v-6.9h53.7V65.5z M88.2,65.5h-6.9v-6.9h6.9V65.5z M56.9,55.1v-6.9h6.9v6.9H56.9z M67.1,55.1v-6.9H74v6.9H67.1z   M77.2,55.1v-6.9h6.9v6.9H77.2z"/><text x="0" y="115" fill="#000000" font-size="5px" font-weight="bold" font-family="'Helvetica Neue', Helvetica, Arial-Unicode, Arial, Sans-serif">Created by Joris Hoogendoorn</text><text x="0" y="120" fill="#000000" font-size="5px" font-weight="bold" font-family="'Helvetica Neue', Helvetica, Arial-Unicode, Arial, Sans-serif">from the Noun Project</text></svg>