<svg xmlns="http://www.w3.org/2000/svg" xmlns:xlink="http://www.w3.org/1999/xlink" version="1.1" x="0px" y="0px" viewBox="0 0 100 125" style="enable-background:new 0 0 100 100;" xml:space="preserve"><path d="M8.5,30.1v39.6h22.7l27.5,22.5V7.8L31.2,30.3H8.5V30.1z M15.5,37.1h13.4v25.6H15.5V37.1z M51.7,77.4L35.9,64.5V35.2  l15.9-12.9V77.4z"/><path d="M75.3,26.8c5.9,6.1,9.2,14.3,9.2,23s-3.3,16.7-9.2,23l5.1,4.9c7.3-7.5,11.2-17.4,11.2-27.9s-4-20.4-11.2-27.9L75.3,26.8z"/><path d="M71.6,30.7l-4.9,4.9c3.8,3.8,5.9,8.9,5.9,14.3s-2.1,10.5-5.9,14.3l4.9,4.9c5.2-5.2,8-12,8-19.3S76.8,35.7,71.6,30.7z"/><text x="0" y="115" fill="#000000" font-size="5px" font-weight="bold" font-family="'Helvetica Neue', Helvetica, Arial-Unicode, Arial, Sans-serif">Created by Agarunov Oktay-Abraham</text><text x="0" y="120" fill="#000000" font-size="5px" font-weight="bold" font-family="'Helvetica Neue', Helvetica, Arial-Unicode, Arial, Sans-serif">from the Noun Project</text></svg>