<svg xmlns="http://www.w3.org/2000/svg" xmlns:xlink="http://www.w3.org/1999/xlink" version="1.1" x="0px" y="0px" viewBox="0 0 100 125" enable-background="new 0 0 100 100" xml:space="preserve"><path fill="#000000" d="M50.004,6.001C25.674,5.496,6.495,26.429,6.005,50C5.501,74.33,26.434,93.51,50.004,93.999  C74.335,94.504,93.514,73.571,94.004,50C93.499,25.669,74.336,6.506,50.004,6.001z M50.004,87.714  C29.124,88.147,12.711,70.229,12.291,50c-0.433-20.881,17.485-37.294,37.714-37.714C70.885,11.853,87.298,29.771,87.718,50  C87.285,70.881,70.885,87.28,50.004,87.714z M50.004,59.284c-8.768-0.472-15.103,7.462-15.538,15.538  c-0.092,1.712,1.5,3.143,3.143,3.143c0.931,0,1.605-0.449,2.363-0.89c1.906-1.107,4.025-1.69,6.158-2.175  c4.599-1.046,10.366-0.208,14.371,2.454c0.183,0.143,0.389,0.264,0.616,0.36c1.195,0.668,2.333,0.379,3.132-0.379  c0.798-0.577,1.349-1.491,1.294-2.513C65.069,66.035,58.792,59.757,50.004,59.284z M42.731,69.268  c3.538-4.482,10.87-4.513,14.465-0.098c-2.371-0.579-4.833-0.836-7.191-0.911C47.579,68.181,45.095,68.607,42.731,69.268z   M43.637,50.659c-3.915,2.27-7.83,4.539-11.746,6.809c-3.514,2.037-6.677-3.396-3.172-5.427c2.348-1.361,4.697-2.723,7.045-4.084  c-2.356-1.355-4.713-2.71-7.069-4.065c-3.512-2.019-0.348-7.451,3.172-5.427c3.923,2.256,7.846,4.512,11.769,6.768  C45.681,46.408,45.67,49.481,43.637,50.659z M71.314,43.966c-2.356,1.355-4.713,2.71-7.069,4.065  c2.349,1.361,4.697,2.723,7.045,4.084c3.504,2.031,0.341,7.464-3.172,5.427c-3.915-2.27-7.83-4.539-11.745-6.809  c-2.033-1.179-2.045-4.252,0-5.427c3.923-2.256,7.846-4.512,11.769-6.768C71.662,36.514,74.826,41.946,71.314,43.966z"/><text x="0" y="115" fill="#000000" font-size="5px" font-weight="bold" font-family="'Helvetica Neue', Helvetica, Arial-Unicode, Arial, Sans-serif">Created by Adriane Harcourt</text><text x="0" y="120" fill="#000000" font-size="5px" font-weight="bold" font-family="'Helvetica Neue', Helvetica, Arial-Unicode, Arial, Sans-serif">from the Noun Project</text></svg>