<svg xmlns:dc="http://purl.org/dc/elements/1.1/" xmlns:cc="http://creativecommons.org/ns#" xmlns:rdf="http://www.w3.org/1999/02/22-rdf-syntax-ns#" xmlns:svg="http://www.w3.org/2000/svg" xmlns="http://www.w3.org/2000/svg" xmlns:sodipodi="http://sodipodi.sourceforge.net/DTD/sodipodi-0.dtd" xmlns:inkscape="http://www.inkscape.org/namespaces/inkscape" version="1.1" x="0px" y="0px" viewBox="0 0 100 125"><g transform="translate(0,-952.36218)"><path style="text-indent:0;text-transform:none;direction:ltr;block-progression:tb;baseline-shift:baseline;color:#000000;enable-background:accumulate;" d="m 34,956.36217 c -6.5961,0 -12,5.40388 -12,12 l 0,68.00003 c 0,6.5961 5.4039,12 12,12 l 32,0 c 6.5961,0 12,-5.4039 12,-12 l 0,-68.00003 c 0,-6.59612 -5.4039,-12 -12,-12 l -32,0 z m 0,6 32,0 c 2.6739,0 4.8872,1.63786 5.6875,4 l -43.375,0 c 0.8003,-2.36214 3.0136,-4 5.6875,-4 z m -6,10 44,0 0,54.00003 -44,0 0,-54.00003 z m 0,60.00003 44,0 0,4 c 0,3.3759 -2.6241,6 -6,6 l -32,0 c -3.3759,0 -6,-2.6241 -6,-6 l 0,-4 z m 15,2 c -1.6568,0 -3,1.3431 -3,3 0,1.6568 1.3432,3 3,3 l 14,0 c 1.6568,0 3,-1.3432 3,-3 0,-1.6569 -1.3432,-3 -3,-3 l -14,0 z" fill="#000000" fill-opacity="1" stroke="none" marker="none" visibility="visible" display="inline" overflow="visible"/></g><text x="0" y="115" fill="#000000" font-size="5px" font-weight="bold" font-family="'Helvetica Neue', Helvetica, Arial-Unicode, Arial, Sans-serif">Created by Kimmi Studio</text><text x="0" y="120" fill="#000000" font-size="5px" font-weight="bold" font-family="'Helvetica Neue', Helvetica, Arial-Unicode, Arial, Sans-serif">from the Noun Project</text></svg>