<?xml version="1.0" encoding="UTF-8" standalone="no"?>
<svg viewBox="0 0 283.46457 389.76376" xmlns="http://www.w3.org/2000/svg">
<defs>
<filter height="1.7972" id="filter3220" width="1.12639" x="-.06319" y="-.3986">
<feGaussianBlur stdDeviation="8.72405"/>
</filter>
<linearGradient gradientUnits="userSpaceOnUse" id="linearGradient2276" x2="0" y1="1297.39573" y2="746.90575">
<stop offset="0" stop-color="#2e3436"/>
<stop offset="1" stop-color="#2e3436" stop-opacity="0"/>
</linearGradient>
<radialGradient cx="284.28571" cy="771.46112" gradientTransform="matrix(.79684,0,0,1.38761,22.06721,-340.60329)" gradientUnits="userSpaceOnUse" id="radialGradient2266" r="201.42857">
<stop offset="0" stop-color="#fff"/>
<stop offset="1" stop-color="#e9e9e6"/>
</radialGradient>
<radialGradient cx="291.09125" cy="722.73688" gradientTransform="matrix(.66214,0,0,1.41945,61.93032,-363.56454)" gradientUnits="userSpaceOnUse" id="radialGradient2272" r="201.42857">
<stop offset="0" stop-color="#ededed"/>
<stop offset="1" stop-color="#dfdfdb"/>
</radialGradient>
</defs>
<g transform="translate(-145.21165,-502.69691)">
<path d="m545.48238,993.77332a165.66502,26.26397 0 1,1 -331.33005,0 165.66502,26.26397 0 1,1 331.33005,0z" fill="#2e3436" filter="url(#filter3220)" opacity=".25568" transform="matrix(.63919,0,0,.63919,44.17148,229.68838)"/>
<path d="m411.38144,680.5836-.1875.5-4.59375-9.3125-5.375.65625-3.03125-6.4375 .8125-7.3125 1-8.15625-6.21875-.875-3.84375,5.0625-6.46875,5-6.75-1-6.8125-7.65625-8.40625,6.53125-5.09375-5.84375-7.9375,4.6875-5.71875,1.40625-4.1875-9.09375-6.375-4.78125-7.53125,6.1875-4.75-6.6875-6.28125,3.8125-4.09375,4.9375-4.28125,1-7.03125-2.6875-9.09375,3.71875-3.4375-4.03125-5.625-1.65625-2.78125-4.875-2.75-5.40625-2.4375,4.21875-1.96875,2.625-7.21875,2.15625-5.1875-3.34375-6.3125-.65625-3.4375,5.40625-2.9375-6.6875-5.25,4.09375-6.53125,2.21875-2.5-4.71875-5.21875,9.9375-4.875-2.4375-4.875-.78125-5.6875,8.25-2.3125-8.8125-7.5625,9.71875-6.125-1.78125-7.28125,6.15625-6.28125-.75-1.28125,9.125-5.3125.625-2.8125-3.65625-8.8125,12.5c-2.59353,15.55983-4.125,31.17967-4.125,46.375 0,98.28969 57.67899,141.53128 128.75,141.53125s128.75-43.24158 128.75-141.53125c0-15.55154-1.59996-31.5476-4.3125-47.46875z" fill="url(#radialGradient2272)" stroke="#d3d7cf" stroke-linecap="round" stroke-linejoin="round" stroke-width=".63919"/>
<path d="m184.94393,694.78201-1.42858-2.32144 .35716-5.35714-2.67858-3.30358-.08928-4.10713-1.7857-3.39286-.06697-4.12946" fill="none" stroke="#d3d7cf" stroke-linecap="round" stroke-linejoin="round" stroke-width=".639"/>
<path d="m342.93054,657.82079 .26786,4.82142-1.87499,3.88393 1.42594,3.73731-1.29706,5.65301 .58006,6.18437-2.40539,3.88959" fill="none" stroke="#d3d7cf" stroke-linecap="round" stroke-linejoin="round" stroke-width=".639"/>
<path d="m248.02823,648.53678-2.27284,4.97965 4.79822,3.78807-2.52538,5.55584 2.27284,4.04061 2.02031,6.81852" fill="none" stroke="#d3d7cf" stroke-linecap="round" stroke-linejoin="round" stroke-width=".639"/>
<path d="m411.44394,680.9586-6.28571,13.53571-3.83483-7.70089-4.94196-2.27232-5.21875,1.09375-4.6875-2.15625-3.84375,2.84375-2.71875,3.21875-6.96875,2.53125-5.1875-3.4375-3.15625-8.53125-4.875,8.75-4.9375-.3125-4.6875,1.9375-6.53125-2.28125-2.96875-4.4375-5.90179-5.1875-4.99107,8.04911-2.66518,8.4375-1.72321-5.23661-.77232-4.8125-3.50893-5.40625-6.90625,2.5-7.46875-4.25-5.21875,3.875-6.625,1.28125-2.625-5.90625-7.25,2.25-5.75-1.09375-3.78125-3.6875-8.71875,4.5625-8.95537,4.03125-5.15625,5.8125-6.5-2.28125-2.375,10.875-1.1875-15.1875-9.0625-.3125-6.02677,3.9375-5.03125-8.65625-5.5625,1.9375-5.25-1.59375-9.84375-4.1875-5.125,4.5-.92411.75-6.28125,3-3.96875,3.9375-1.03125,7-4.78125,7.21875-2.59375-11.34375 1.28125-8.3125-2.3125-6.40625-.53125-8.71875-5.75,4.9375-4.40625,2.21875-3.375,11.6875c-2.35362,14.8049-3.75,29.64054-3.75,44.09375 0,98.28969 57.67899,141.53128 128.75,141.53125s128.75-43.24158 128.75-141.53125c0-15.42951-1.57851-31.2963-4.25-47.09375z" fill="url(#radialGradient2266)" stroke="#d3d7cf" stroke-linecap="round" stroke-linejoin="round" stroke-width=".639"/>
<path d="m243.72824,697.44654-1.77984,4.97246 2.5,3.75-.89285,7.32142 2.67857,4.28572-.89286,8.57143 4.46429,3.39286 1.25,5.89285 3.92855,6.25 .53572,7.67857" fill="none" stroke="#d3d7cf" stroke-linecap="round" stroke-linejoin="round" stroke-width=".639"/>
<path d="m179.5431,700.0137 2.6922,5.28411-1.60714,3.75 1.36729,2.94007 1.29333,2.71818-1.98224,6.27168 2.43873,2.6569 .89284,4.82143" fill="none" stroke="#d3d7cf" stroke-linecap="round" stroke-linejoin="round" stroke-width=".639"/>
<path d="m327.1053,694.61415-.87118,4.9477-1.04606,2.79587 1.04606,2.91842-1.78572,3.21428 1.60714,5.71429-2.67856,4.64286 2.14285,4.28571" fill="none" stroke="#d3d7cf" stroke-linecap="round" stroke-linejoin="round" stroke-width=".639"/>
<path d="m403.91455,706.91546-.15505-4.13593 1.41588-3.75897 .00372-4.53825" fill="none" stroke="#d3d7cf" stroke-linecap="round" stroke-linejoin="round" stroke-width=".639"/>
<path d="m252.80301,689.04475 4.79504.57051 3.50088,2.5188" fill="none" stroke="#d3d7cf" stroke-linecap="round" stroke-linejoin="round" stroke-width=".639"/>
<path d="m415.70024,728.05441c0,98.28969-57.68082,141.53569-128.75183,141.53569s-128.75184-43.246-128.75184-141.53569 57.68082-214.5864 128.75184-214.5864 128.75183,116.29669 128.75183,214.5864z" fill="url(#linearGradient2276)" opacity=".50568"/>
</g>
</svg>
