<?xml version="1.0" encoding="UTF-8" standalone="no"?>
<svg viewBox="0 0 318.28226 436.36194" xmlns="http://www.w3.org/2000/svg">
<g transform="translate(-169.4303,-88.46692)">
<path d="m486.46256,349.71691c0,93.05143-70.4,168.57143-157.14285,168.57143s-157.14286-75.52-157.14286-168.57143 70.40001-259.99999 157.14286-259.99999 157.14285,166.94857 157.14285,259.99999z" fill="#fff" stroke="#000" stroke-linejoin="round" stroke-width="2.5"/>
<path d="m192.21155,246.11012c-13.67155,38.56136-21.53125,77.85328-21.53125,108.90625 0,93.05143 70.4134,168.56252 157.15625,168.5625s157.15628-75.51107 157.15625-168.5625c0-25.81686-4.01257-58.03942-13.69643-90.08929l-.71875,1.9375-15.36607-17.31696-4.09375,36.0625-23.75-27.03125c0,0-8.18749,80.24268-8.1875,85.15625s-32.74999-77.78126-32.75-77.78125l-13.09375,22.09375-9-17.1875-16.40625,70.40625-13.09375-73.6875-26.1875,45.03125-22.125-44.21875-26.21875,80.25-12.28125-83.53125-16.375,30.3125-15.5625-35.21875-11.96875,22.25-10.875-35.90625-1.03125-.4375z" fill="#fff" stroke="#000" stroke-linejoin="round" stroke-width="2.5"/>
</g>
</svg>
