<?xml version="1.0" encoding="UTF-8" standalone="no"?>
<svg id="svg2" xmlns:rdf="http://www.w3.org/1999/02/22-rdf-syntax-ns#" xmlns="http://www.w3.org/2000/svg" height="500" width="500" version="1.1" xmlns:cc="http://creativecommons.org/ns#" xmlns:dc="http://purl.org/dc/elements/1.1/" viewBox="0 0 500.00001 500.00001">
 <g id="layer1" transform="translate(0 -552.36)">
  <path id="rect3336" fill-rule="evenodd" fill="#00f" d="m380.24 566.95a62.704 62.704 0 0 0 -62.704 62.704 62.704 62.704 0 0 0 1.956 15.302l-173.93 100.42a62.704 62.704 0 0 0 -43.011 -17.184 62.704 62.704 0 0 0 -62.704 62.704 62.704 62.704 0 0 0 62.704 62.704 62.704 62.704 0 0 0 43.05 -17.163l173.91 100.41a62.704 62.704 0 0 0 -1.9735 15.291 62.704 62.704 0 0 0 62.704 62.704 62.704 62.704 0 0 0 62.704 -62.704 62.704 62.704 0 0 0 -62.704 -62.704 62.704 62.704 0 0 0 -42.42 16.61l-174.32-100.66a62.704 62.704 0 0 0 1.7706 -14.493 62.704 62.704 0 0 0 -1.774 -14.493l174.35-100.66a62.704 62.704 0 0 0 42.406 16.621 62.704 62.704 0 0 0 62.704 -62.704 62.704 62.704 0 0 0 -62.704 -62.704z"/>
 </g>
</svg>
