<?xml version="1.0" encoding="utf-8"?>
<!-- Generator: Adobe Illustrator 15.1.0, SVG Export Plug-In . SVG Version: 6.00 Build 0)  -->
<!DOCTYPE svg PUBLIC "-//W3C//DTD SVG 1.1//EN" "http://www.w3.org/Graphics/SVG/1.1/DTD/svg11.dtd">
<svg version="1.1" id="Layer_1" xmlns="http://www.w3.org/2000/svg" xmlns:xlink="http://www.w3.org/1999/xlink" x="0px" y="0px"
	 width="100px" height="100px" viewBox="0 0 100 100" enable-background="new 0 0 100 100" xml:space="preserve">
<g>
	<path d="M50,5C25.187,5,5,25.187,5,50c0,24.813,20.187,45,45,45c24.814,0,45-20.188,45-45C95,25.187,74.813,5,50,5z M50,89.204
		c-21.617,0-39.204-17.587-39.204-39.204S28.382,10.796,50,10.796S89.205,28.383,89.205,50S71.617,89.204,50,89.204z"/>
	<path fill="#FFF200" d="M50,10.796c-21.618,0-39.204,17.587-39.204,39.204S28.383,89.204,50,89.204S89.205,71.617,89.205,50
		S71.618,10.796,50,10.796z M63.033,24.737c4.121,0,7.462,5.19,7.462,11.592c0,6.402-3.341,11.592-7.462,11.592
		s-7.463-5.19-7.463-11.592C55.57,29.927,58.912,24.737,63.033,24.737z M36.967,33.431c4.122,0,7.462,1.297,7.462,2.898
		s-3.341,2.898-7.462,2.898c-4.121,0-7.462-1.297-7.462-2.898S32.846,33.431,36.967,33.431z M72.835,63.752
		c-4.745,7.732-13.444,12.535-22.704,12.535c-9.501,0-18.314-4.993-22.999-13.031c-0.806-1.383-0.339-3.156,1.044-3.963
		c1.383-0.809,3.157-0.338,3.963,1.044C35.789,66.6,42.683,70.49,50.131,70.49c7.26,0,14.066-3.745,17.766-9.771
		c0.838-1.364,2.623-1.793,3.984-0.954C73.245,60.604,73.673,62.389,72.835,63.752z"/>
	<ellipse cx="36.967" cy="36.329" rx="7.462" ry="2.898"/>
	<ellipse cx="63.033" cy="36.329" rx="7.462" ry="11.592"/>
	<path d="M71.881,59.766c-1.361-0.839-3.146-0.41-3.984,0.954c-3.699,6.025-10.506,9.771-17.766,9.771
		c-7.448,0-14.342-3.891-17.992-10.153c-0.806-1.382-2.58-1.853-3.963-1.044c-1.383,0.807-1.85,2.58-1.044,3.963
		c4.685,8.038,13.498,13.031,22.999,13.031c9.26,0,17.959-4.803,22.704-12.535C73.673,62.389,73.245,60.604,71.881,59.766z"/>
</g>
</svg>
