<?xml version="1.0" encoding="UTF-8" standalone="no"?>
<svg width="640" xmlns="http://www.w3.org/2000/svg" height="480">
 <g id="g349" fill="#94854e">
  <path id="path351" d="m60.395 183.26v-4.437s6.155-5.871 6.729-5.871c0.573 0 5.726 3.58 6.299 4.724 0.57201 1.146 0.716 5.727 0.716 5.727l-13.744-0.143z"/>
  <path id="path353" d="m60.872 188.51s7.253-3.533 12.788 0.38101l0.669 7.635s-7.636-2.098-14.126 0.763l0.669-8.779z"/>
  <path id="path355" d="m60.776 203.4c0.094997-0.286 8.111-4.581 13.839-0.19l1.812 39.035h-17.082l1.431-38.845z"/>
  <path id="path357" d="m57.674 198.51s10.953-4.295 19.756 0.429l0.143 2.79s-10.307-3.936-18.969 0.573l-0.93-3.792z"/>
  <polygon id="polygon359" points="56.601 242.82 79.363 242.96 79.363 246.75 56.672 246.4 56.529 243.03"/>
  <path id="path361" d="m58.772 249.97c0.095001-0.28601 10.02-5.057 17.942 0.19199l1.622 31.494 3.15 0.573-0.191 4.771-3.245 1.051s-7.54-5.344-19.374-0.094971l-3.436-1.719 0.095-3.625 3.245 0.095 0.192-32.737z"/>
  <ellipse id="ellipse363" cy="125.89" cx="243.25" rx="2.505" ry="2.471"/>
  <ellipse id="ellipse365" cy="131.45" cx="243.31" rx="1.825" ry="1.896"/>
  <ellipse id="ellipse367" cy="117.71" cx="243.3" rx="1.718" ry="1.682"/>
  <ellipse id="ellipse369" cy="110.84" cx="243.25" rx="1.424" ry="1.657"/>
  <rect id="rect371" y="108.39" width="1.288" height="29.705" x="242.63"/>
  <path id="path373" d="m223.45 150.48s17.823-12.025 19.899-16.106c0 0 17.68 13.171 20.543 14.102s0.42902 1.002 0.42902 1.002-12.239-5.298-40.871 1.002z"/>
  <path id="path375" d="m198.88 205.21c-0.095001-0.286-1.623-11.834-1.623-11.834s0.001007-10.974 2.768-16.318c2.767-5.346 6.681-11.263 10.021-14.509 3.34-3.242 13.552-10.401 15.079-11.642 1.528-1.239 34.359-2.958 37.603-0.28601 3.245 2.673 8.971 5.82 10.785 7.635 1.813 1.814 8.017 5.536 10.021 9.066 2.005 3.532 4.867 7.063 5.727 11.168 0.858 4.103 1.909 8.588 1.812 13.169-0.095001 4.581 0 6.681-0.38199 10.022-0.38101 3.339-0.668 3.53-0.953 4.295-0.28601 0.763-4.772-3.532-9.163-4.678-4.39-1.146-16.892-1.049-18.992-1.24-2.1-0.192-10.021-0.86-13.935-0.765-3.912 0.097-18.992 1.241-21.568 1.432-2.577 0.192-15.939 1.432-18.802 2.291-2.863 0.858-8.398 2.387-8.398 2.387v-0.19301z"/>
  <path id="path377" d="m295.65 286.14h17.56l-0.189-12.789s-4.581-3.627-7.444-4.2c-2.862-0.57101-8.59 5.919-9.926 7.253-1.337 1.336-0.000977 9.736-0.000977 9.736z"/>
  <path id="path379" d="m329.67 286.48l11.31 0.144v-18.61s-1.861-4.439-2.435-5.01c-0.57199-0.574-9.449 17.178-8.875 23.476z"/>
  <path id="path381" d="m286.72 224.2c-0.10001 0.19-0.215-6.44 0.716-7.945 0.93198-1.501 9.949-10.236 12.527-12.023l0.286-9.806 0.645-0.144 0.572 9.95s9.948 4.938 12.384 9.377c2.432 4.437 2.289 9.09 2.361 10.449 0.070007 1.36-28.202-2.29-29.491 0.142z"/>
  <path id="path383" d="m148.44 232.72c0-0.215 0.071991-11.741 0.071991-11.741s-0.86-0.142-1.003-0.429c-0.143-0.286 0.42999-2.719 1.576-4.007 1.145-1.288 3.507 2.935 3.436 4.079-0.071991 1.146-1.862 0.28799-1.862 0.28799l-0.143 11.953-2.076-0.143z"/>
  <path id="path385" d="m154.38 233.22h2.291l-0.286-4.581 0.93-0.07s-1.646-3.437-1.861-4.153c-0.215-0.715-2.577 3.581-2.433 4.08 0.143 0.50301 1.359 0.429 1.359 0.429v4.295z"/>
  <path id="path387" d="m205.84 217.62s46.811-8.017 77.59-1.145v8.874l-77.304 2.146-0.286-9.875z"/>
  <path id="path389" d="m220.44 247.83l0.287 25.339 1.861 0.286s2.004-7.015 3.436-8.303 15.604-8.446 17.895-10.308c2.29-1.861 0.85899-0.573 0.85899-0.573s12.312 5.869 15.316 7.444c3.007 1.576 6.586 6.729 7.303 8.734l0.716 2.003 1.145-0.285v-24.91l-48.818 0.573z"/>
  <path id="path391" d="m238.77 286.19s8.016-2.434 10.02-4.583c2.005-2.146 4.582-0.42899 6.012 0.14401 1.433 0.573 12.599 6.729 12.599 6.729l1.574 0.573-0.287 33.928-40.227 0.571-0.287-24.908s1.002-4.866 3.436-7.3 6.729-5.013 7.16-5.154z"/>
  <path id="path393" d="m286.87 231.74l-0.095 10.976 3.339-0.286s-0.76199-10.31 0-10.883c0.76401-0.57001-3.244 0.19299-3.244 0.19299z"/>
  <path id="path395" d="m294.6 242.24l3.626 0.095-0.19-7.825s1.813-3.627 3.816-4.198c2.005-0.573 3.149 2.193 3.914 3.625 0.763 1.432 0.47702 8.398 0.47702 8.398l3.437 0.097 0.095-5.344 2.768 0.286s-2.768-7.063-3.913-7.542c-1.145-0.47601-12.884-0.093002-12.884-0.093002s-2.004 1.62-2.958 1.62c-0.95499 0 1.622 3.056 1.813 3.819 0.189 0.76401-0.001007 7.062-0.001007 7.062z"/>
  <path id="path397" d="m316.55 233.75c-0.095001-0.286 0 8.588 0 8.588l-3.436 0.097 0.19-4.678c0.001007 0.000992 3.341-3.721 3.246-4.007z"/>
  <polygon id="polygon399" points="321.32 226.12 318.46 229.17 319.7 229.55 320.08 242.82 322.28 242.82 322.18 231.84 322.18 229.26 323.8 228.98"/>
  <path id="path401" d="m286.3 243.96l35.503-0.571s20.519 2.291 21.378 3.244c0.85998 0.95601 1.241 2.291 1.241 2.291l-58.981-0.383-0.285-4.483 1.144-0.098z"/>
  <path id="path405" d="m416 176.96v-4.437s6.156-5.871 6.729-5.871 5.727 3.581 6.299 4.725c0.573 1.146 0.716 5.727 0.716 5.727l-13.744-0.144z"/>
  <path id="path407" d="m416.47 182.21s7.254-3.534 12.79 0.379l0.668 7.636s-7.635-2.1-14.125 0.76399l0.667-8.779z"/>
  <path id="path409" d="m416.38 197.1c0.095001-0.28799 8.112-4.581 13.838-0.19l1.813 39.035h-17.083l1.432-38.845z"/>
  <path id="path411" d="m413.28 192.21s10.952-4.295 19.757 0.43001l0.143 2.792s-10.308-3.936-18.969 0.573l-0.931-3.795z"/>
  <polygon id="polygon413" points="412.2 236.52 434.96 236.66 434.96 240.45 412.27 240.1 412.13 236.73"/>
  <path id="path415" d="m414.37 243.68c0.096008-0.286 10.021-5.059 17.942 0.19l1.622 31.496 3.149 0.573-0.19 4.771-3.246 1.049s-7.539-5.344-19.373-0.095001l-3.437-1.717 0.097-3.626 3.244 0.095 0.192-32.736z"/>
  <path id="path417" d="m413.8 283.66s11.548-5.249 20.71 0.19l3.627 71.77s-14.888-16.129-18.037-17.275c-3.15-1.145-9.64-1.812-9.831-1.812-0.19 0 2.101-2.482 2.101-2.482l1.431-50.199v-0.19199h-0.001007z"/>
  <path id="path419" d="m372.98 221.7l-0.143-1.216h2.435s-0.216-3.722-0.14502-4.008c0.072021-0.287 4.439-4.081 4.439-4.081l0.357-5.725 0.644 0.07 0.43 5.871s4.867 2.147 4.939 7.015c0.070984 4.866 0 0.571 0 0.571l2.004 0.216 0.071 0.858c0.001007 0-13.885 0.142-15.031 0.429z"/>
  <path id="path421" d="m375.12 222.7s7.588-1.576 10.559 0.035004l0.215 7.623-10.951 0.108 0.177-7.766z"/>
  <path id="path423" d="m372.69 231.22s14.745-0.64499 15.318 0.035004l0.036 1.144-2.147 1.541 1.038 30.312-12.812 0.25 0.787-28.238 0.071-1.539-1.323-1.36-0.753-0.357-0.215-1.788z"/>
  <path id="path425" d="m371.87 265.26s17.68-0.53601 18.108 0.036987l-0.179 2.933-2.219 0.501 0.93 26.985-14.851-0.035 0.5-26.95-2.146-0.608-0.108-2.756"/>
  <path id="path427" d="m178.64 301.58c0.644 0.14398 6.011-6.729 9.089-6.013 3.078 0.715 9.233 6.728 9.233 6.728s0.573 7.015 0 6.799c-0.57199-0.21298-6.656-3.866-6.871-3.362-0.215 0.49902-2.291 1.503-4.366 1.933-2.075 0.42999-4.724 4.295-4.724 4.295v9.76l23.025-0.456-0.955-77.305-34.167 0.381-24.051 2.673 1.337 75.396 31.822-0.629 0.628-20.2zm-20.806-40.251c2.863-0.573 4.58 4.007 5.917 5.536 1.336 1.525 0 7.635 0 7.635l-3.626-3.437s-3.436-1.145-4.2-1.337c-0.76399-0.19202-3.817-1.336-3.817-1.336s2.863-6.491 5.726-7.061zm6.632 48.266s-1.145-2.36-2.792-3.291c-1.646-0.93201-3.436-0.28799-5.296-1.076-1.861-0.78497-3.508-3.075-3.508-3.075s2.291-3.938 5.01-5.369c0 0 4.868 2.075 6.084 5.154 1.218 3.078 0.502 7.657 0.502 7.657zm13.219-42.159c0.57199-4.008 9.925-8.208 9.925-8.208 6.49 3.435 9.163 8.588 9.163 8.588s0.381 6.3-0.19099 6.109c-0.57301-0.19202-2.672-3.819-6.872-3.246-4.199 0.57098-9.353 7.254-9.353 7.254l-0.19 9.927-2.481-0.383c-0.000992 0.000977-0.57399-16.034-0.000992-20.041z"/>
  <path id="path429" d="m209.56 237.52l0.859 75.014 3.866 0.573 2.147-69.287 57.262-0.144 1.146 45.094 2.147 3.722s0.28601 13.886-0.14401 14.888c-0.42999 1.002 1.862 4.295 1.862 4.295l1.146-0.142 0.143-74.443-70.434 0.43z"/>
  <polygon id="polygon431" points="207.56 317.69 207.42 322.12 219.3 322.41 219.58 317.97"/>
  <polygon id="polygon433" points="272.12 317.26 284.15 316.83 284.15 321.26 272.12 321.7"/>
  <polygon id="polygon435" points="288.3 317.69 292.02 317.54 292.16 321.55 288.3 321.7"/>
  <polygon id="polygon437" points="285.01 251.55 285.58 320.26 286.58 320.55 287.16 251.55"/>
  <polygon id="polygon439" points="326.09 245.11 335.54 231.22 346.14 231.65 346.14 249.4"/>
  <polygon id="polygon441" points="187.95 196 189.24 196.08 189.45 205.45 187.73 205.45"/>
  <path id="path443" d="m174.13 226.78l0.072-8.23s14.102-13.099 14.316-14.459c0.21399-1.36 0.429 0.071991 0.429 0.071991s10.164 7.729 12.168 10.951l2.005 3.223-0.144 8.301-28.846 0.142z"/>
  <path id="path445" d="m202.12 232.15l-0.072-1.791h1.217l-0.214-2.934-29.419 0.07s-2.577 0.573-3.436 1.647l3.936 3.506 0.072 10.595 28.99-0.072-0.071-10.953-1.003-0.068zm-9.807 10.092l-7.874 0.072s-0.070999-5.583 0-6.514c0.072006-0.92999 3.579-4.009 3.579-4.009 2.936 0.50099 3.938 3.724 3.938 3.724s-1.146-0.86101-2.291-1.075c-1.145-0.215-3.437 1.717-3.437 1.717l0.216 1.717 6.084 0.072-0.215 4.296z"/>
  <path id="path447" d="m144.14 233.69l2.434-4.794 1.754 4.295-0.072-0.538 8.375 0.359 0.214 3.149 4.367 4.188 0.178 2.504 1.611 1.109 0.071 1.432-7.659 1.647-10.378 0.752 0.322-13.101s-1.146-0.67801-1.217-1.002z"/>
  <path id="path449" d="m169.34 227.71s-2.314 3.028-2.314 3.316c0 0.286 0.024994 0.548 0.024994 0.548l1.192 0.049-0.023 13.646 2.313 0.095 0.072-13.791s0.955-0.26199 1.074-0.357c0.12-0.096008-2.314-3.482-2.339-3.506z"/>
  <polygon id="polygon451" points="346.14 250.83 347.42 320.12 341.7 320.26 342.84 253.55 343.7 251.83"/>
  <path id="path453" d="m340.84 256.56l0.431-3.578-19.04-1.432 0.858 69.574h4.582l-0.287-28.344 13.456 0.144-0.285-4.153-13.457-0.715-0.286-23.478s5.439-4.868 6.441-5.01c1.002-0.14401 1.002-3.151 1.002-3.151l6.585 0.143z"/>
  <path id="path455" d="m339.41 300.51s-9.733 10.881-9.161 20.471h9.878l-0.717-20.471z"/>
  <path id="path457" d="m296.03 321.55l18.037-0.858-0.143-12.312s-6.586-3.007-8.303-3.437c-1.719-0.42902-9.307 5.298-9.592 7.017-0.28601 1.717 0.001007 9.59 0.001007 9.59z"/>
  <path id="path459" d="m293.6 292.64c-0.28497 0.42899 0.28702 9.161 0.28702 9.161s7.015-7.015 9.591-7.015c0 0 9.163 3.866 10.164 6.156l0.716-8.447-20.758 0.145z"/>
  <path id="path461" d="m293.88 265.58s7.873-6.585 10.021-6.871c2.147-0.28799 8.876 4.724 9.448 6.154 0.573 1.434 0.716-8.732 0.716-8.732l-21.187-0.144 1.002 9.593z"/>
  <rect id="rect463" y="217.81" width="2.004" height="17.464" x="340.41"/>
  <rect id="rect465" y="227.02" width="1.432" height="8.112" x="334.11"/>
  <path id="path467" d="m334.92 227.36s-2.005-0.383-2.196-0.717c-0.19-0.332 2.244-2.434 2.387-3.005 0.143-0.573 2.005 2.671 2.101 2.91 0.094025 0.239-2.292 0.812-2.292 0.812z"/>
  <path id="path469" d="m341.32 218.62s-2.004-0.383-2.195-0.717c-0.19-0.334 2.242-2.432 2.385-3.005 0.14398-0.573 2.006 2.671 2.101 2.91 0.095001 0.239-2.291 0.812-2.291 0.812z"/>
  <path id="path471" d="m344.51 231.89s-2.005-0.38301-2.196-0.71501c-0.19-0.336 2.244-2.436 2.387-3.007 0.143-0.57301 2.004 2.671 2.1 2.91 0.093994 0.239-2.291 0.81201-2.291 0.81201z"/>
  <path id="path473" d="m224.53 410.02l19.01-51.918c-0.272 0.40698-11 22.98-24.72 51.918h5.71zm59.095-52.299l-15.27 0.764 88.628 51.535h88.147c-24.693-7.755-161.5-52.299-161.5-52.299zm-81.313 0.381l-184.32 51.918h86.401l114.72-50.772-16.797-1.146z"/>
  <path id="path475" d="m57.427 317.24c4.817-3.844 8.977-8.507 14.419-9.002 4.083-0.36902 6.415-1.342 7.867-2.176l-0.804-15.908c-9.162-5.441-20.709-0.19199-20.709-0.19199v0.19199l-0.773 27.086z"/>
  <path id="path477" d="m371.05 334.44c0.089996 0.36102 0.072021 0.03302-0.026001-0.67499-0.020996 0.271-0.016998 0.504 0.026001 0.67499zm-20.614-1.529s-0.036011-0.062988-0.10202-0.177c-3.017 6.067 0.10202 0.177 0.10202 0.177zm-111.47 23.288h-0.091995c-0.21701 2.778 0.091995 0 0.091995 0zm148.88-56.118c-0.76498-1.908-14.125-0.38101-14.125-0.38101l-0.383 22.143-253.39 2.669-0.19-22.521 2.194-1.432-0.094-2.578-2.673-0.285-0.954-25.388 2.672-1.908-0.477-2.958-2.863-0.381-1.336-29.108 2.481-2.102 0.191-2.767-2.292 0.288s0.095001-0.67 0-1.336c-0.095001-0.67 0.095001-0.48 0-0.95599-0.095001-0.476 0.095001-6.205 0.095001-6.205l2.291-0.762-0.476-1.336-1.718-0.19-0.096-0.668c-0.667-2.863-5.726-7.156-5.726-7.156-4.962 3.242-5.631 8.301-5.631 8.301l-2.004 0.765 0.287 2.384 2.194 0.573 0.287 6.395-2.005 0.381 0.096 1.91 1.718 2.673-0.669 29.299-2.194-0.095-0.096 3.149 1.813 1.241-0.381 26.435-1.909 0.097 0.096 2.098 1.909 1.91-0.287 22.713 1.002 0.717 1.832 1.729c3.255 5.291 5.662 11.91 4.804 19.404 0.38-0.58099 0.569-2.861 0.37801-4.194-0.19001-1.336 1.527-2.48 1.91-3.054 0.38201-0.57101-0.191-2.673-0.573-4.198-0.382-1.526-0.382-3.628-0.382-5.153 0-1.233 1.497-2.469 2.676-3.301l1.963-0.11c1.011 0.97202 2.042 3.028 2.042 3.028l0.382 2.48 0.764 3.817-0.572 6.873 1.909-1.719 1.717-2.101s-0.57198-4.58-0.764-5.534c-0.19-0.95401 0.382-4.198 0.382-4.198s1.91-2.482 2.482-2.673c0.573-0.19 2.863-0.19 3.817 0 0.955 0.19 2.1 3.627 2.1 3.627l-0.191 6.298-0.19 7.827 5.536-0.381s0.19-2.675 0.19-4.01c0-1.337 0.19101-4.581 0.573-6.109 0.38101-1.525 3.245-3.244 4.009-3.054 0.763 0.19199 2.862 2.673 3.436 2.292 0.57198-0.383 2.481-2.482 4.2 0.19 1.717 2.671 0.57199 5.344 0.57199 5.344l3.245 0.192s0.38199-2.102 2.862-4.392c2.482-2.291 4.391 0.573 4.391 0.573l1.528 6.681-2.483 10.499 3.628 5.152 7.062-0.19s-0.19101-12.98 0.18999-16.034c0.38101-3.054 1.527-8.208 4.581-6.107 3.054 2.1 2.672 8.207 2.672 8.207l0.573 14.315 36.839-1.718 23.577 0.192c0.024002-0.311 0.054001-0.686 0.09198-1.146 0.382-4.581 5.727-3.817 5.727-3.817 4.199 0 5.344 4.58 5.344 4.58l38.176-1.907v3.817l24.05-1.145s-1.146-4.963-0.38199-16.417c0.76498-11.452 7.254-3.054 7.254-3.054 1.145-7.635 5.344-3.817 5.344-3.817 1.527-6.107 14.89-0.383 14.89-0.383 4.246-10.97 10.132-1.601 10.969-0.177 0.147-0.29498 0.30399-0.61099 0.482-0.96698 3.817-7.637 7.635-2.291 8.017-4.2 0.383-1.908 8.018-2.29 9.544-2.29 1.165 0 2.33 6.22 2.646 8.488 0.16699-2.16 2.274-7.131 4.988-8.488 3.055-1.527 4.582 8.017 4.582 8.017l3.436-1.907s1.527-7.256 2.672-8.4c1.146-1.144 2.291-1.907 2.291-1.907s-0.38501-19.089-1.148-20.998z"/>
 </g>
</svg>
